<?xml version="1.0" encoding="UTF-8"?>
<svg id="Camada_1" xmlns="http://www.w3.org/2000/svg" viewBox="0 0 69 69">
  <defs>
    <style>
      .cls-1 {
        fill: #d9d9d9;
        fill-rule: evenodd;
      }
    </style>
  </defs>
  <path class="cls-1" d="M34.53.57C15.44.57,0,16.12,0,35.36,0,50.74,9.89,63.75,23.61,68.36c1.72.35,2.34-.75,2.34-1.67,0-.81-.06-3.57-.06-6.45-9.6,2.07-11.61-4.15-11.61-4.15-1.54-4.03-3.83-5.07-3.83-5.07-3.14-2.13.23-2.13.23-2.13,3.49.23,5.32,3.57,5.32,3.57,3.09,5.3,8.06,3.8,10.06,2.88.29-2.25,1.2-3.8,2.17-4.66-7.66-.81-15.72-3.8-15.72-17.16,0-3.8,1.37-6.91,3.54-9.33-.34-.86-1.54-4.43.34-9.21,0,0,2.92-.92,9.49,3.57,2.81-.76,5.72-1.15,8.63-1.15,2.92,0,5.89.4,8.63,1.15,6.57-4.49,9.49-3.57,9.49-3.57,1.89,4.78.69,8.35.34,9.21,2.23,2.42,3.54,5.53,3.54,9.33,0,13.36-8.06,16.3-15.78,17.16,1.26,1.09,2.34,3.17,2.34,6.45,0,4.66-.06,8.41-.06,9.56,0,.92.63,2.02,2.34,1.67,13.72-4.61,23.61-17.62,23.61-33,.06-19.24-15.44-34.79-34.47-34.79Z"/>
</svg>