<?xml version="1.0" encoding="UTF-8"?>
<svg id="Camada_1" xmlns="http://www.w3.org/2000/svg" xmlns:xlink="http://www.w3.org/1999/xlink" viewBox="0 0 69 69">
  <defs>
    <style>
      .cls-1 {
        fill: none;
      }

      .cls-2 {
        clip-path: url(#clippath);
      }

      .cls-3 {
        fill: #d9d9d9;
      }
    </style>
    <clipPath id="clippath">
      <rect class="cls-1" width="69" height="69"/>
    </clipPath>
  </defs>
  <g class="cls-2">
    <g>
      <path class="cls-3" d="M34.5,6.21c9.22,0,10.31.04,13.93.2,3.37.15,5.19.71,6.4,1.19,1.6.62,2.76,1.37,3.96,2.57,1.21,1.21,1.95,2.36,2.57,3.96.47,1.21,1.04,3.05,1.19,6.4.16,3.64.2,4.73.2,13.93s-.04,10.31-.2,13.93c-.15,3.37-.71,5.19-1.19,6.4-.62,1.6-1.37,2.76-2.57,3.96-1.21,1.21-2.36,1.95-3.96,2.57-1.21.47-3.05,1.04-6.4,1.19-3.64.16-4.73.2-13.93.2s-10.31-.04-13.93-.2c-3.37-.15-5.19-.71-6.4-1.19-1.6-.62-2.76-1.37-3.96-2.57-1.21-1.21-1.95-2.36-2.57-3.96-.47-1.21-1.04-3.05-1.19-6.4-.16-3.64-.2-4.73-.2-13.93s.04-10.31.2-13.93c.15-3.37.71-5.19,1.19-6.4.62-1.6,1.37-2.76,2.57-3.96,1.21-1.21,2.36-1.95,3.96-2.57,1.21-.47,3.05-1.04,6.4-1.19,3.63-.16,4.72-.2,13.93-.2ZM34.5,0c-9.37,0-10.54.04-14.22.2-3.67.16-6.19.75-8.37,1.6-2.28.89-4.2,2.06-6.12,3.99-1.93,1.91-3.1,3.84-3.99,6.1-.85,2.2-1.44,4.7-1.6,8.37-.16,3.69-.2,4.87-.2,14.23s.04,10.54.2,14.22c.16,3.67.75,6.19,1.6,8.37.89,2.28,2.06,4.2,3.99,6.12,1.91,1.91,3.84,3.1,6.1,3.98,2.2.85,4.7,1.44,8.37,1.6,3.68.16,4.85.2,14.22.2s10.54-.04,14.22-.2c3.67-.16,6.19-.75,8.37-1.6,2.26-.88,4.19-2.06,6.1-3.98,1.91-1.91,3.1-3.84,3.98-6.1.85-2.2,1.44-4.7,1.6-8.37.16-3.68.2-4.85.2-14.22s-.04-10.54-.2-14.22c-.16-3.67-.75-6.19-1.6-8.37-.85-2.29-2.02-4.22-3.95-6.13-1.91-1.91-3.84-3.1-6.1-3.98-2.2-.85-4.7-1.44-8.37-1.6-3.69-.18-4.87-.22-14.23-.22Z"/>
      <path class="cls-3" d="M34.5,16.78c-9.78,0-17.72,7.94-17.72,17.72s7.94,17.72,17.72,17.72,17.72-7.94,17.72-17.72-7.94-17.72-17.72-17.72ZM34.5,46c-6.35,0-11.5-5.15-11.5-11.5s5.15-11.5,11.5-11.5,11.5,5.15,11.5,11.5-5.15,11.5-11.5,11.5Z"/>
      <path class="cls-3" d="M57.06,16.08c0,2.29-1.86,4.14-4.14,4.14s-4.14-1.86-4.14-4.14,1.86-4.14,4.14-4.14,4.14,1.86,4.14,4.14Z"/>
    </g>
  </g>
</svg>