<?xml version="1.0" encoding="UTF-8"?>
<svg id="Camada_1" xmlns="http://www.w3.org/2000/svg" xmlns:xlink="http://www.w3.org/1999/xlink" viewBox="0 0 69 69">
  <defs>
    <style>
      .cls-1 {
        fill: none;
      }

      .cls-2 {
        clip-path: url(#clippath);
      }

      .cls-3 {
        fill: #d9d9d9;
      }
    </style>
    <clipPath id="clippath">
      <rect class="cls-1" width="69" height="69"/>
    </clipPath>
  </defs>
  <g class="cls-2">
    <path class="cls-3" d="M63.89,0H5.09C2.28,0,0,2.22,0,4.97v59.04c0,2.75,2.28,4.99,5.09,4.99h58.8c2.82,0,5.11-2.24,5.11-4.97V4.97c0-2.75-2.29-4.97-5.11-4.97ZM20.47,58.8h-10.24V25.86h10.24v32.94ZM15.35,21.37c-3.29,0-5.94-2.65-5.94-5.93s2.65-5.93,5.94-5.93,5.93,2.65,5.93,5.93-2.65,5.93-5.93,5.93ZM58.8,58.8h-10.23v-16.01c0-3.81-.07-8.73-5.32-8.73s-6.13,4.16-6.13,8.46v16.28h-10.22V25.86h9.81v4.5h.13c1.36-2.59,4.7-5.32,9.68-5.32,10.36,0,12.28,6.82,12.28,15.69v18.07Z"/>
  </g>
</svg>