<?xml version="1.0" encoding="UTF-8"?>
<svg id="Camada_1" xmlns="http://www.w3.org/2000/svg" viewBox="0 0 69 69">
  <defs>
    <style>
      .cls-1 {
        fill: #d9d9d9;
      }
    </style>
  </defs>
  <path class="cls-1" d="M.16,69l4.85-17.72C2.02,46.09.45,40.22.45,34.19.46,15.34,15.8,0,34.64,0c9.15,0,17.73,3.57,24.19,10.03,6.45,6.46,10.01,15.05,10,24.19,0,18.85-15.35,34.19-34.19,34.19-5.72,0-11.36-1.44-16.35-4.16L.16,69ZM19.13,58.05c4.82,2.86,9.42,4.57,15.5,4.58,15.66,0,28.42-12.75,28.43-28.42,0-15.7-12.69-28.43-28.41-28.44-15.67,0-28.43,12.75-28.43,28.42,0,6.4,1.87,11.19,5.02,16.2l-2.87,10.49,10.76-2.82ZM51.87,42.35c-.21-.36-.78-.57-1.64-1-.85-.43-5.05-2.5-5.84-2.78-.78-.28-1.35-.43-1.92.43-.57.85-2.21,2.78-2.71,3.35-.5.57-1,.64-1.85.21-.85-.43-3.61-1.33-6.87-4.24-2.54-2.27-4.25-5.06-4.75-5.92-.5-.85-.05-1.32.37-1.74.39-.38.85-1,1.28-1.5.43-.49.58-.85.86-1.42.28-.57.14-1.07-.07-1.5-.22-.43-1.92-4.63-2.63-6.34-.7-1.66-1.4-1.44-1.92-1.47l-1.64-.03c-.57,0-1.49.21-2.28,1.07-.78.86-2.99,2.92-2.99,7.13s3.06,8.27,3.49,8.84c.43.57,6.02,9.2,14.59,12.9,2.04.88,3.63,1.41,4.87,1.8,2.05.65,3.91.56,5.38.34,1.64-.24,5.05-2.07,5.77-4.06.71-2,.71-3.71.5-4.07Z"/>
</svg>